<?xml version="1.0" encoding="UTF-8"?>
<svg version="1.1" xmlns="http://www.w3.org/2000/svg" width="284" height="313">
<path d="M0 0 C9.81812539 0.31671372 16.5492776 4.106457 23.3125 11.1875 C36.29815917 26.85894812 39.41229045 49.34437252 38 69 C36.656589 78.73765662 33.33611856 88.21230411 29 97 C28.60554688 97.81082031 28.21109375 98.62164062 27.8046875 99.45703125 C23.85650644 106.39590036 17.33502282 111.04525583 10 114 C6.27734375 114.0859375 6.27734375 114.0859375 3 113 C-8.00356172 97.39793487 -3.8487401 68.72320185 -1.3515625 51.01318359 C-0.98044483 48.8880195 -0.4705573 46.82644379 0.0546875 44.734375 C1.32273724 39.20786075 1.29283485 33.77206127 1.25 28.125 C1.25773438 27.11308594 1.26546875 26.10117188 1.2734375 25.05859375 C1.25789308 18.9884971 0.68376714 13.39001201 -0.66894531 7.46826172 C-1.03651534 4.72775067 -0.68017896 2.66413353 0 0 Z " fill="#F8C392" transform="translate(145,93)"/>
<path d="M0 0 C4.80900724 12.97815415 -0.49979872 30.64473768 -3.98046875 43.328125 C-4.15933624 43.9810704 -4.33820374 44.63401581 -4.52249146 45.30674744 C-5.42596604 48.59288234 -6.35032157 51.86948189 -7.30664062 55.14086914 C-10.75842775 67.39166018 -11.65299172 78.28211516 -6 90 C-3.92683587 93.34835891 -1.70633681 96.59102 0.64599609 99.74926758 C3.42247893 103.5841743 4.77474702 106.07892172 4 111 C3.34 111.66 2.68 112.32 2 113 C-7.91673646 112.81635673 -17.08251306 108.53731242 -24.28125 101.84375 C-33.79182767 91.64149395 -36.87389007 78.43891871 -39 65 C-39.13148437 64.20722656 -39.26296875 63.41445312 -39.3984375 62.59765625 C-42.02295949 44.68706697 -37.29944974 25.37522062 -27.6640625 10.15625 C-21.7792585 2.53087017 -9.62444903 -4.81222451 0 0 Z " fill="#F8C593" transform="translate(138,95)"/>
<path d="M0 0 C19.19999795 -0.87438321 38.08019526 7.79872417 52.16015625 20.375 C54.20783929 22.56137074 55.98604615 24.79446269 57.74609375 27.21875 C58.50535156 28.25773437 59.26460938 29.29671875 60.046875 30.3671875 C67.89424644 41.58870436 72.86420941 54.1528595 72.87548828 68.0246582 C72.87864044 69.14213943 72.8817926 70.25962067 72.88504028 71.41096497 C72.88200394 73.19720528 72.88200394 73.19720528 72.87890625 75.01953125 C72.87986298 76.25164841 72.8808197 77.48376556 72.88180542 78.7532196 C72.88248452 81.34955903 72.88064911 83.94590018 72.87646484 86.54223633 C72.87287196 89.21060492 72.87192008 91.87877268 72.87646484 94.54711914 C72.88261191 98.39211072 72.88190348 102.23703706 72.87890625 106.08203125 C72.88093048 107.28297928 72.88295471 108.48392731 72.88504028 109.7212677 C72.88031204 111.37384834 72.88031204 111.37384834 72.87548828 113.05981445 C72.87469269 114.0343306 72.87389709 115.00884674 72.87307739 116.01289368 C72.74609375 118.21875 72.74609375 118.21875 71.74609375 119.21875 C68.24609375 119.34375 68.24609375 119.34375 64.74609375 119.21875 C63.07225635 117.5449126 63.61268725 115.5004202 63.60424805 113.20263672 C63.59369637 111.59362991 63.59369637 111.59362991 63.58293152 109.95211792 C63.57876724 108.77940338 63.57460297 107.60668884 63.5703125 106.3984375 C63.54708217 103.91796056 63.52296362 101.43749182 63.49804688 98.95703125 C63.46316622 95.0450316 63.43373098 91.13332641 63.42016602 87.22119141 C63.32258264 63.69008516 62.1541793 44.62683555 44.74609375 27.21875 C43.64201172 26.11466797 43.64201172 26.11466797 42.515625 24.98828125 C30.99525258 14.1203901 15.78049938 9.74677117 0.1015625 9.94140625 C-17.98074831 11.43598607 -32.2922066 17.99726152 -44.69140625 31.32568359 C-53.47338261 41.96559683 -58.23532274 57.23066761 -58.45922852 70.85693359 C-58.47917374 71.93760101 -58.49911896 73.01826843 -58.51966858 74.13168335 C-58.53638107 75.28189972 -58.55309357 76.43211609 -58.5703125 77.6171875 C-58.5910936 78.80728424 -58.61187469 79.99738098 -58.63328552 81.22354126 C-58.6985072 85.01355385 -58.75753859 88.80363391 -58.81640625 92.59375 C-58.85961751 95.16797564 -58.90323263 97.74219453 -58.94726562 100.31640625 C-59.0541605 106.61711682 -59.15597713 112.91789404 -59.25390625 119.21875 C-61.586854 119.26116723 -63.92093192 119.25967937 -66.25390625 119.21875 C-67.93482594 117.53783031 -67.38998157 115.46048045 -67.39916992 113.1550293 C-67.40554977 112.07267502 -67.41192963 110.99032074 -67.41850281 109.87516785 C-67.41961563 108.69304214 -67.42072845 107.51091644 -67.421875 106.29296875 C-67.4252034 105.07986526 -67.4285318 103.86676178 -67.43196106 102.61689758 C-67.43703941 100.03683858 -67.43936911 97.45677298 -67.43920898 94.87670898 C-67.44137578 90.96131197 -67.45946706 87.04620572 -67.47851562 83.13085938 C-67.48145344 80.62239679 -67.48343564 78.11393288 -67.484375 75.60546875 C-67.49156052 74.44560959 -67.49874603 73.28575043 -67.50614929 72.09074402 C-67.45322498 52.8755814 -61.87355288 39.16255027 -50.25390625 24.21875 C-49.49078125 23.20683594 -48.72765625 22.19492188 -47.94140625 21.15234375 C-44.70790972 17.6227567 -41.28036455 15.20281779 -37.25390625 12.65625 C-36.50206055 12.17808838 -35.75021484 11.69992676 -34.97558594 11.20727539 C-23.82675553 4.29429042 -12.99309009 1.26102781 0 0 Z " fill="#E2AB80" transform="translate(138.25390625,59.78125)"/>
<path d="M0 0 C6.42257513 2.17901701 11.97457887 4.98678276 17.5625 8.8125 C18.45453125 9.36292969 19.3465625 9.91335937 20.265625 10.48046875 C35.6538921 20.56021354 44.23854244 38.54963167 48.34765625 56.0078125 C48.59279541 59.20799283 48.01023447 60.97756351 46.5625 63.8125 C45.5625 64.8125 45.5625 64.8125 42.1875 65.0625 C25.48849772 64.73681024 10.68902031 54.71605971 -0.8359375 43.47265625 C-12.62140199 31.06372862 -19.34245574 17.96798806 -19.4375 0.8125 C-19.1075 -0.1775 -18.7775 -1.1675 -18.4375 -2.1875 C-13.02876727 -4.89186637 -5.41825128 -1.75545646 0 0 Z " fill="#F8C392" transform="translate(90.4375,192.1875)"/>
<path d="M0 0 C3.0763922 4.6145883 1.90721945 8.69108616 1 14 C-3.37333844 32.54295497 -15.00301981 48.42987724 -31 58.5625 C-40.62418629 64.39197441 -51.56499768 68.84703721 -63 68 C-64.7109375 66.75 -64.7109375 66.75 -66 65 C-67.82119712 50.77189751 -57.93743156 34.93598074 -49.75 24.3125 C-45.40606968 19.14497215 -40.75644738 15.47766297 -35 12 C-34.28199219 11.55140625 -33.56398437 11.1028125 -32.82421875 10.640625 C-24.06951803 5.4550253 -10.49820054 -1.54385302 0 0 Z " fill="#F7C493" transform="translate(209,189)"/>
<path d="M0 0 C5.2587081 14.19176993 -1.2182296 33.33923081 -5.07421875 47.0871582 C-5.4454705 48.41222788 -5.81656384 49.73734195 -6.1875 51.0625 C-6.37086914 51.71552094 -6.55423828 52.36854187 -6.74316406 53.04135132 C-9.49135557 62.92503894 -11.17776088 71.76002347 -10 82 C-10.66 81.67 -11.32 81.34 -12 81 C-11.97381592 80.35973877 -11.94763184 79.71947754 -11.9206543 79.05981445 C-11.81638719 76.14429498 -11.75158247 73.22916802 -11.6875 70.3125 C-11.64560547 69.30509766 -11.60371094 68.29769531 -11.56054688 67.25976562 C-11.36450885 61.09895856 -11.36450885 61.09895856 -14.51953125 55.98046875 C-15.33808594 55.32691406 -16.15664062 54.67335937 -17 54 C-17 53.01 -17 52.02 -17 51 C-17.66 51 -18.32 51 -19 51 C-20.8232886 48.2650671 -22.32279544 45.3974485 -23.875 42.5 C-25.30442363 39.96002416 -26.49703295 38.50296705 -28.625 36.375 C-31.03366233 33.96633767 -31.99032692 32.21259615 -33 29 C-39.7171393 47.25034074 -38.41778476 69.29103088 -30.6484375 87.09765625 C-28.01817328 92.64818818 -25.59073197 96.93392311 -21 101 C-20.67 101.99 -20.34 102.98 -20 104 C-18.34795544 104.70211894 -16.68076231 105.36971413 -15 106 C-14.505 106.99 -14.505 106.99 -14 108 C-20.38484289 106.72303142 -24.07195069 102.93362994 -28 98 C-35.81136771 85.60214117 -38.6512708 71.40309576 -40 57 C-40.07347656 56.22527344 -40.14695312 55.45054687 -40.22265625 54.65234375 C-40.91874435 38.94496449 -35.57954531 20.41293195 -26 8 C-19.53893518 1.77628042 -8.99300836 -4.49650418 0 0 Z " fill="#F8B684" transform="translate(138,95)"/>
<path d="M0 0 C9.81812539 0.31671372 16.5492776 4.106457 23.3125 11.1875 C33.96963957 24.04882707 38.17520868 42.57671103 38.1875 58.875 C38.19974609 59.72191406 38.21199219 60.56882813 38.22460938 61.44140625 C38.23795766 67.25235985 37.43918401 72.36841038 36 78 C35.67 78 35.34 78 35 78 C35.33 74.04 35.66 70.08 36 66 C35.01 65.67 34.02 65.34 33 65 C30 61.55555556 30 61.55555556 30 59 C29.525625 58.525625 29.05125 58.05125 28.5625 57.5625 C27 56 27 56 26 53 C25.34 52.34 24.68 51.68 24 51 C21 46.38461538 21 46.38461538 21 44 C20.34 43.67 19.68 43.34 19 43 C18.34 42.34 17.68 41.68 17 41 C17 40.01 17 39.02 17 38 C15.515 37.505 15.515 37.505 14 37 C14 35.68 14 34.36 14 33 C13.34 33 12.68 33 12 33 C12 32.01 12 31.02 12 30 C11.34 30 10.68 30 10 30 C10 29.34 10 28.68 10 28 C9.34 28 8.68 28 8 28 C8 27.01 8 26.02 8 25 C7.34 25 6.68 25 6 25 C5.67 24.01 5.34 23.02 5 22 C4.96261719 23.09957031 4.92523438 24.19914062 4.88671875 25.33203125 C4.32648638 38.75325017 4.32648638 38.75325017 2.5 44.5 C0.5637953 50.6187828 0.45435606 56.7175265 0.2109375 63.08203125 C0.02793527 66.48112819 -0.42522852 69.65334669 -1 73 C-1.49072001 82.65563787 -0.63915787 92.36697789 0 102 C-4.06670952 95.49326477 -3.19371423 86.52366118 -3.1875 79.125 C-3.18669434 78.12065918 -3.18588867 77.11631836 -3.18505859 76.08154297 C-3.10005634 65.56293027 -2.51448337 54.96747432 0.0546875 44.734375 C1.32273724 39.20786075 1.29283485 33.77206127 1.25 28.125 C1.25773438 27.11308594 1.26546875 26.10117188 1.2734375 25.05859375 C1.25789308 18.9884971 0.68376714 13.39001201 -0.66894531 7.46826172 C-1.03651534 4.72775067 -0.68017896 2.66413353 0 0 Z " fill="#F8B684" transform="translate(145,93)"/>
<path d="M0 0 C1.00869141 0.01353516 2.01738281 0.02707031 3.05664062 0.04101562 C5.51750621 0.07600424 7.97720335 0.12508842 10.4375 0.1875 C10.4375 0.5175 10.4375 0.8475 10.4375 1.1875 C8.7875 1.1875 7.1375 1.1875 5.4375 1.1875 C5.4375 2.1775 5.4375 3.1675 5.4375 4.1875 C4.66148437 4.29707031 3.88546875 4.40664062 3.0859375 4.51953125 C-5.22366761 5.73919883 -13.36994174 7.34509559 -21.5625 9.1875 C-21.5625 9.8475 -21.5625 10.5075 -21.5625 11.1875 C-22.19414063 11.46980469 -22.82578125 11.75210938 -23.4765625 12.04296875 C-39.95273993 20.13861213 -49.46573813 32.27908293 -55.671875 49.21484375 C-57.62104865 55.32899694 -58.66226847 61.40198118 -58.76782227 67.82568359 C-58.78776749 68.90635101 -58.80771271 69.98701843 -58.82826233 71.10043335 C-58.84497482 72.25064972 -58.86168732 73.40086609 -58.87890625 74.5859375 C-58.89968735 75.77603424 -58.92046844 76.96613098 -58.94187927 78.19229126 C-59.00710095 81.98230385 -59.06613234 85.77238391 -59.125 89.5625 C-59.16821126 92.13672564 -59.21182638 94.71094453 -59.25585938 97.28515625 C-59.36275425 103.58586682 -59.46457088 109.88664404 -59.5625 116.1875 C-61.89544775 116.22991723 -64.22952567 116.22842937 -66.5625 116.1875 C-68.24341969 114.50658031 -67.69857532 112.42923045 -67.70776367 110.1237793 C-67.71414352 109.04142502 -67.72052338 107.95907074 -67.72709656 106.84391785 C-67.72820938 105.66179214 -67.7293222 104.47966644 -67.73046875 103.26171875 C-67.73379715 102.04861526 -67.73712555 100.83551178 -67.74055481 99.58564758 C-67.74563316 97.00558858 -67.74796286 94.42552298 -67.74780273 91.84545898 C-67.74996953 87.93006197 -67.76806081 84.01495572 -67.78710938 80.09960938 C-67.79004719 77.59114679 -67.79202939 75.08268288 -67.79296875 72.57421875 C-67.80015427 71.41435959 -67.80733978 70.25450043 -67.81474304 69.05949402 C-67.75401551 47.01122421 -59.76916225 31.43022173 -45.5625 15.1875 C-39.05000145 9.38667655 -30.74067753 6.65674124 -22.61499023 3.90014648 C-21.22022521 3.4158692 -19.83667043 2.8983003 -18.46508789 2.35180664 C-12.24480672 -0.01188627 -6.60575136 -0.17049921 0 0 Z " fill="#F4C495" transform="translate(138.5625,62.8125)"/>
<path d="M0 0 C3.0763922 4.6145883 1.90721945 8.69108616 1 14 C-1.5041466 24.61758158 -6.81432401 36.54518793 -15 44 C-15.99 43.505 -15.99 43.505 -17 43 C-15.69791667 41.56770833 -14.39583333 40.13541667 -13.09375 38.703125 C-11.63975508 36.77639485 -11.63975508 36.77639485 -12 33 C-13.33289654 31.49985609 -13.33289654 31.49985609 -15 30 C-16.01351664 28.34151823 -17.01120795 26.67334039 -18 25 C-19.32077408 23.2350016 -20.65275212 21.48188299 -22.01171875 19.74609375 C-23 18 -23 18 -23 14 C-23.99 13.67 -24.98 13.34 -26 13 C-26.495 12.01 -26.495 12.01 -27 11 C-38.14269678 15.70979967 -48.18632662 23.08163779 -54 34 C-55.16999672 36.95828439 -56.14556368 39.93653318 -57 43 C-57.66 43 -58.32 43 -59 43 C-61.2452987 50.60407828 -62.83675515 58.15836122 -64 66 C-53.55355784 65.12946315 -44.15458443 63.06763007 -34.9609375 57.890625 C-33.99027344 57.44976562 -33.99027344 57.44976562 -33 57 C-32.01 57.495 -32.01 57.495 -31 58 C-40.28084089 64.42519754 -51.54989931 68.84815561 -63 68 C-64.7109375 66.75 -64.7109375 66.75 -66 65 C-67.82119712 50.77189751 -57.93743156 34.93598074 -49.75 24.3125 C-45.40606968 19.14497215 -40.75644738 15.47766297 -35 12 C-34.28199219 11.55140625 -33.56398437 11.1028125 -32.82421875 10.640625 C-24.06951803 5.4550253 -10.49820054 -1.54385302 0 0 Z " fill="#F6AB7B" transform="translate(209,189)"/>
<path d="M0 0 C12.90367242 3.44097931 24.73781758 11.76910241 32 23 C32.42933838 23.65790527 32.85867676 24.31581055 33.30102539 24.99365234 C39.48340728 34.67173991 44.98947718 45.3789876 46 57 C44.64516129 61.35483871 44.64516129 61.35483871 43 63 C27.41940543 64.15411812 12.91100437 56.03497138 1.40234375 46.2109375 C-1.1370608 43.87385949 -3.57935401 41.45947988 -6 39 C-5.67 38.34 -5.34 37.68 -5 37 C-4.53851563 37.49628906 -4.07703125 37.99257812 -3.6015625 38.50390625 C8.08671594 50.67727135 23.69317303 60.54177444 41 61 C41.66 60.67 42.32 60.34 43 60 C43 58.68 43 57.36 43 56 C42.34 57.32 41.68 58.64 41 60 C38 55.25 38 55.25 38 53 C37.01 52.505 37.01 52.505 36 52 C35.27840576 50.35636866 34.60648579 48.68949614 34 47 C33.34 47 32.68 47 32 47 C31.67 46.01 31.34 45.02 31 44 C30.34 43.34 29.68 42.68 29 42 C26 37.38461538 26 37.38461538 26 35 C24.515 34.505 24.515 34.505 23 34 C21.9375 32.0625 21.9375 32.0625 21 30 C20.34 29.34 19.68 28.68 19 28 C17.99578876 26.25072881 16.99313075 24.5004448 16.01171875 22.73828125 C14.82521129 20.69968735 13.42433428 18.87753155 12 17 C11.4740625 15.9171875 11.4740625 15.9171875 10.9375 14.8125 C10.13297839 12.82107843 10.13297839 12.82107843 8 12 C8 11.34 8 10.68 8 10 C6.54166642 8.37485532 6.54166642 8.37485532 5 7 C5.33 6.01 5.66 5.02 6 4 C5.195625 3.71125 4.39125 3.4225 3.5625 3.125 C1 2 1 2 0 0 Z " fill="#F8B785" transform="translate(93,194)"/>
<path d="M0 0 C3.3 0 6.6 0 10 0 C14.98637134 19.94548535 6.55759413 42.08319931 1 61 C-0.16625078 57.05625193 0.39811818 54.55834566 1.4375 50.5625 C2.45808504 46.61288168 3.3385657 43.09160253 3 39 C1.65670412 36.90336809 1.65670412 36.90336809 0 35 C-0.45246094 34.07767578 -0.45246094 34.07767578 -0.9140625 33.13671875 C-2.07974342 30.84309479 -3.44367204 28.92157127 -5 26.875 C-5.515625 26.19179687 -6.03125 25.50859375 -6.5625 24.8046875 C-8.02179528 22.9031823 -8.02179528 22.9031823 -10 21 C-9.67 20.01 -9.34 19.02 -9 18 C-9.99 17.67 -10.98 17.34 -12 17 C-13.46902268 14.86991712 -14.07361867 13.6533657 -13.78125 11.05859375 C-12.00085975 6.36726545 -6.3617781 3.62414829 -2 1.625 C-1.34 1.41875 -0.68 1.2125 0 1 C0 0.67 0 0.34 0 0 Z " fill="#F6AB7B" transform="translate(128,95)"/>
<path d="M0 0 C12.65059522 -0.82057915 23.30309497 2.25569812 34 9 C34 9.66 34 10.32 34 11 C34.56460938 11.08894531 35.12921875 11.17789063 35.7109375 11.26953125 C46.14997568 14.60076016 54.33259572 28.34584542 59.41015625 37.55859375 C66.43117085 53.38924643 65.370724 71.12034467 65.1875 88 C65.17241984 90.43228334 65.15873736 92.86457577 65.14648438 95.296875 C65.1137573 101.19811816 65.06382442 107.09901544 65 113 C63.02 113 61.04 113 59 113 C59.01332367 111.97548233 59.01332367 111.97548233 59.0269165 110.93026733 C59.1077334 104.43017405 59.16830003 97.93022502 59.20724869 91.429739 C59.22794777 88.08924861 59.25816345 84.74949528 59.30175781 81.40917969 C59.35081059 77.55132337 59.3730911 73.69405106 59.390625 69.8359375 C59.42159271 68.07411636 59.42159271 68.07411636 59.45318604 66.27670288 C59.45734769 50.57185556 54.28813049 36.80109085 44 25 C44 24.34 44 23.68 44 23 C43.34 23 42.68 23 42 23 C42 22.34 42 21.68 42 21 C41.34 21 40.68 21 40 21 C40 20.34 40 19.68 40 19 C39.13375 18.59201172 39.13375 18.59201172 38.25 18.17578125 C36.00343412 17.00179457 34.05751337 15.66438933 32 14.1875 C22.05847954 7.54902543 11.61352141 4.95145237 0 3 C0 2.01 0 1.02 0 0 Z " fill="#F6A777" transform="translate(144,64)"/>
<path d="M0 0 C3.29869999 3.07878665 5.04157153 5.788242 6.8125 9.875 C8.05776784 12.25647963 8.05776784 12.25647963 10.5 15 C12.50396447 17.40475736 13.63687213 19.27374426 15 22 C15.99 22.66 16.98 23.32 18 24 C17.34 24 16.68 24 16 24 C15.9175 24.556875 15.835 25.11375 15.75 25.6875 C15 28 15 28 12.9375 30.5625 C10.68887794 32.87245668 10.68887794 32.87245668 11 36 C7.42697655 40.55613345 2.90891711 44.00675786 -2 47 C-2.66 46.67 -3.32 46.34 -4 46 C-3.28972656 45.43410156 -2.57945312 44.86820313 -1.84765625 44.28515625 C-0.92855469 43.55167969 -0.00945312 42.81820312 0.9375 42.0625 C1.85402344 41.33160156 2.77054688 40.60070312 3.71484375 39.84765625 C5.40851269 38.48061289 5.40851269 38.48061289 7 37 C6.01 36.34 5.02 35.68 4 35 C2.90234375 33.34375 2.90234375 33.34375 1.9375 31.5 C0.7384658 29.22713195 -0.15055782 27.84944218 -2 26 C-3.17441742 24.05867386 -4.31621731 22.09749299 -5.4375 20.125 C-7.85152937 15.82003068 -7.85152937 15.82003068 -10.84765625 11.9296875 C-12 10 -12 10 -11.5078125 7.42578125 C-9.64814966 4.43394026 -8.06510091 3.61895554 -4.875 2.1875 C-3.96492187 1.76855469 -3.05484375 1.34960938 -2.1171875 0.91796875 C-1.06917969 0.46357422 -1.06917969 0.46357422 0 0 Z " fill="#F7B887" transform="translate(182,199)"/>
<path d="M0 0 C0.5534764 2.07553648 1 3.84365964 1 6 C1.66 6 2.32 6 3 6 C6 10.38461538 6 10.38461538 6 13 C6.66 13 7.32 13 8 13 C8.33 14.32 8.66 15.64 9 17 C9.66 17 10.32 17 11 17 C11.30292969 17.56847656 11.60585937 18.13695312 11.91796875 18.72265625 C14.64777856 23.75390571 17.51709584 28.45287513 21 33 C21.33 33 21.66 33 22 33 C21.9278125 33.825 21.855625 34.65 21.78125 35.5 C21.04250353 44.6932894 20.89227027 53.78312343 21 63 C20.34 62.67 19.68 62.34 19 62 C19.02618408 61.35973877 19.05236816 60.71947754 19.0793457 60.05981445 C19.18361281 57.14429498 19.24841753 54.22916802 19.3125 51.3125 C19.35439453 50.30509766 19.39628906 49.29769531 19.43945312 48.25976562 C19.63549115 42.09895856 19.63549115 42.09895856 16.48046875 36.98046875 C15.66191406 36.32691406 14.84335938 35.67335937 14 35 C14 34.01 14 33.02 14 32 C13.34 32 12.68 32 12 32 C10.1767114 29.2650671 8.67720456 26.3974485 7.125 23.5 C5.69557637 20.96002416 4.50296705 19.50296705 2.375 17.375 C-0.03366233 14.96633767 -0.99032692 13.21259615 -2 10 C-8.7171393 28.25034074 -7.41778476 50.29103088 0.3515625 68.09765625 C2.98182672 73.64818818 5.40926803 77.93392311 10 82 C10.33 82.99 10.66 83.98 11 85 C12.65204456 85.70211894 14.31923769 86.36971413 16 87 C16.495 87.99 16.495 87.99 17 89 C10.61515711 87.72303142 6.92804931 83.93362994 3 79 C-4.81136771 66.60214117 -7.6512708 52.40309576 -9 38 C-9.07347656 37.22527344 -9.14695312 36.45054687 -9.22265625 35.65234375 C-9.71136917 24.62443057 -6.98648196 10.8518348 -2 1 C-1.34 0.67 -0.68 0.34 0 0 Z " fill="#F5BD8C" transform="translate(107,114)"/>
<path d="M0 0 C9.81812539 0.31671372 16.5492776 4.106457 23.3125 11.1875 C33.96963957 24.04882707 38.17520868 42.57671103 38.1875 58.875 C38.19974609 59.72191406 38.21199219 60.56882813 38.22460938 61.44140625 C38.23795766 67.25235985 37.43918401 72.36841038 36 78 C35.67 78 35.34 78 35 78 C35.01047363 77.10804932 35.02094727 76.21609863 35.03173828 75.29711914 C35.0660796 71.94797109 35.09102394 68.59901359 35.10986328 65.24975586 C35.11984313 63.80766829 35.13343184 62.36560054 35.15087891 60.92358398 C35.316143 46.90043972 32.69152969 35.80594179 27 23 C26.5875 22.030625 26.175 21.06125 25.75 20.0625 C21.18932321 12.08131562 15.6385044 7.23596708 7 4 C5.34151064 3.62811032 3.67589806 3.28329238 2 3 C2.144375 3.83917969 2.28875 4.67835937 2.4375 5.54296875 C4.52741065 19.08384815 6.23049573 34.02154301 1.73046875 47.18359375 C0.38314493 52.37835564 0.41595961 57.74023925 0.2109375 63.08203125 C0.02793527 66.48112819 -0.42522852 69.65334669 -1 73 C-1.49072001 82.65563787 -0.63915787 92.36697789 0 102 C-4.06670952 95.49326477 -3.19371423 86.52366118 -3.1875 79.125 C-3.18669434 78.12065918 -3.18588867 77.11631836 -3.18505859 76.08154297 C-3.10005634 65.56293027 -2.51448337 54.96747432 0.0546875 44.734375 C1.32273724 39.20786075 1.29283485 33.77206127 1.25 28.125 C1.25773438 27.11308594 1.26546875 26.10117188 1.2734375 25.05859375 C1.25789308 18.9884971 0.68376714 13.39001201 -0.66894531 7.46826172 C-1.03651534 4.72775067 -0.68017896 2.66413353 0 0 Z " fill="#E3AD83" transform="translate(145,93)"/>
<path d="M0 0 C2.375 -0.1875 2.375 -0.1875 5 0 C7.32377141 3.48565712 7.16262515 4.46061693 6.75 8.5 C6.66234375 9.4590625 6.5746875 10.418125 6.484375 11.40625 C6 14 6 14 4 17 C3.34 17 2.68 17 2 17 C1.87625 17.7425 1.7525 18.485 1.625 19.25 C1.04513299 21.80141485 0.26291261 23.7267573 -1 26 C-2.32 25.67 -3.64 25.34 -5 25 C-5.185625 24.071875 -5.185625 24.071875 -5.375 23.125 C-5.87197356 20.80879168 -5.87197356 20.80879168 -8 19 C-8 18.01 -8 17.02 -8 16 C-8.66 15.67 -9.32 15.34 -10 15 C-10.66 14.67 -11.32 14.34 -12 14 C-12 12.68 -12 11.36 -12 10 C-12.99 10.33 -13.98 10.66 -15 11 C-15 10.01 -15 9.02 -15 8 C-10.69021227 4.55216982 -5.23242495 3.43256683 0 2 C0 1.34 0 0.68 0 0 Z " fill="#F6A373" transform="translate(204,189)"/>
<path d="M0 0 C8.19756907 1.86044121 14.44712833 5.98478695 19.34765625 12.90234375 C20.30307404 14.56251838 21.15638171 16.28031656 22 18 C22.515625 18.7425 23.03125 19.485 23.5625 20.25 C25.47568695 23.91000982 26.35791741 27.67592591 27.3515625 31.671875 C27.77842578 33.94224397 27.77842578 33.94224397 29 35 C29.04092937 37.33297433 29.04241723 39.66705225 29 42 C24.9431078 38.08300064 21.63012721 34.00976611 19 29 C19 27.68 19 26.36 19 25 C18.01 24.67 17.02 24.34 16 24 C14.15500602 22.12382302 12.6316401 20.07262391 11 18 C11.33 17.67 11.66 17.34 12 17 C9.42715139 13.66771722 9.42715139 13.66771722 6.53125 10.625 C4.69949798 8.6810999 3.57321538 6.66356381 2.3125 4.3125 C1.87550781 3.50425781 1.43851563 2.69601563 0.98828125 1.86328125 C0.66214844 1.24839844 0.33601562 0.63351563 0 0 Z " fill="#F6AC7B" transform="translate(150,96)"/>
<path d="M0 0 C2.64 0 5.28 0 8 0 C9.85131483 3.92857754 10.22004943 6.98775112 10.125 11.3125 C10.10695312 12.38113281 10.08890625 13.44976562 10.0703125 14.55078125 C10.04710937 15.35902344 10.02390625 16.16726562 10 17 C9.34 17 8.68 17 8 17 C8.02320313 17.62648438 8.04640625 18.25296875 8.0703125 18.8984375 C8.09738281 20.12433594 8.09738281 20.12433594 8.125 21.375 C8.14820313 22.18710938 8.17140625 22.99921875 8.1953125 23.8359375 C8 26 8 26 6 28 C3.63719073 25.85199157 2.41659766 23.83319533 1 21 C0.34 20.67 -0.32 20.34 -1 20 C-1.28875 18.865625 -1.5775 17.73125 -1.875 16.5625 C-2.24625 15.386875 -2.6175 14.21125 -3 13 C-4.32520503 12.31731862 -5.65812182 11.6492959 -7 11 C-7.75 7.875 -7.75 7.875 -8 5 C-5.36 3.68 -2.72 2.36 0 1 C0 0.67 0 0.34 0 0 Z " fill="#F6A374" transform="translate(128,95)"/>
<path d="M0 0 C0.99 0.33 1.98 0.66 3 1 C2.20335937 2.39798828 2.20335937 2.39798828 1.390625 3.82421875 C-5.09807415 15.44437319 -9.9830591 27.11188225 -10.20532227 40.63818359 C-10.22526749 41.71885101 -10.24521271 42.79951843 -10.26576233 43.91293335 C-10.28247482 45.06314972 -10.29918732 46.21336609 -10.31640625 47.3984375 C-10.33718735 48.58853424 -10.35796844 49.77863098 -10.37937927 51.00479126 C-10.44460095 54.79480385 -10.50363234 58.58488391 -10.5625 62.375 C-10.60571126 64.94922564 -10.64932638 67.52344453 -10.69335938 70.09765625 C-10.80025425 76.39836682 -10.90207088 82.69914404 -11 89 C-13.33294775 89.04241723 -15.66702567 89.04092937 -18 89 C-19 88 -19 88 -19.12025452 85.75376892 C-19.11803391 84.76115555 -19.11581329 83.76854218 -19.11352539 82.74584961 C-19.11344986 81.62476303 -19.11337433 80.50367645 -19.11329651 79.34861755 C-19.10813522 78.1288472 -19.10297394 76.90907684 -19.09765625 75.65234375 C-19.0962413 74.41078018 -19.09482635 73.16921661 -19.09336853 71.89002991 C-19.08870591 68.58394509 -19.07971497 65.27792854 -19.06866455 61.97186279 C-19.05844827 58.6003885 -19.05387045 55.22890717 -19.04882812 51.85742188 C-19.03777395 45.23826225 -19.02101736 38.61913507 -19 32 C-18.67 32 -18.34 32 -18 32 C-18 50.15 -18 68.3 -18 87 C-16.35 87 -14.7 87 -13 87 C-13.00666183 86.40690536 -13.01332367 85.81381073 -13.02018738 85.20274353 C-13.08724112 78.9557749 -13.13208686 72.70891063 -13.16479492 66.46166992 C-13.17975889 64.13903644 -13.20013736 61.81643061 -13.22631836 59.49389648 C-13.36788189 46.60051186 -13.30427817 34.51748235 -10 22 C-9.597806 20.18890081 -9.20112771 18.37655865 -8.8125 16.5625 C-8.544375 15.386875 -8.27625 14.21125 -8 13 C-7.34 13 -6.68 13 -6 13 C-6 11.68 -6 10.36 -6 9 C-5.34 9 -4.68 9 -4 9 C-4 8.34 -4 7.68 -4 7 C-3.34 7 -2.68 7 -2 7 C-2 6.01 -2 5.02 -2 4 C-1.34 4 -0.68 4 0 4 C0 2.68 0 1.36 0 0 Z " fill="#E0B58C" transform="translate(90,90)"/>
<path d="M0 0 C-11.41994518 4.88874134 -11.41994518 4.88874134 -16.375 6.3125 C-27.26091472 9.85537043 -36.61831261 16.32769776 -44 25 C-44.51175781 25.59683594 -45.02351562 26.19367188 -45.55078125 26.80859375 C-48.92839375 31.12277137 -50.53781181 35.75752039 -52 41 C-52.66 41 -53.32 41 -54 41 C-56.2452987 48.60407828 -57.83675515 56.15836122 -59 64 C-48.55355784 63.12946315 -39.15458443 61.06763007 -29.9609375 55.890625 C-28.99027344 55.44976562 -28.99027344 55.44976562 -28 55 C-27.01 55.495 -27.01 55.495 -26 56 C-35.28084089 62.42519754 -46.54989931 66.84815561 -58 66 C-59.7109375 64.75 -59.7109375 64.75 -61 63 C-62.82119712 48.77189751 -52.93743156 32.93598074 -44.75 22.3125 C-40.40606968 17.14497215 -35.75644738 13.47766297 -30 10 C-29.28199219 9.55140625 -28.56398437 9.1028125 -27.82421875 8.640625 C-8.5803144 -2.7579582 -8.5803144 -2.7579582 0 0 Z " fill="#E4B084" transform="translate(204,191)"/>
<path d="M0 0 C7.72292316 3.49370333 12.4842271 8.0163992 17 15 C17.42933838 15.65790527 17.85867676 16.31581055 18.30102539 16.99365234 C24.48340728 26.67173991 29.98947718 37.3789876 31 49 C29.64516129 53.35483871 29.64516129 53.35483871 28 55 C12.41940543 56.15411812 -2.08899563 48.03497138 -13.59765625 38.2109375 C-16.1370608 35.87385949 -18.57935401 33.45947988 -21 31 C-20.67 30.34 -20.34 29.68 -20 29 C-19.30777344 29.74443359 -19.30777344 29.74443359 -18.6015625 30.50390625 C-6.91328406 42.67727135 8.69317303 52.54177444 26 53 C26.66 52.67 27.32 52.34 28 52 C27.31359547 40.78872593 23.20825748 30.42471564 17.5 20.875 C17.13261719 20.26003662 16.76523438 19.64507324 16.38671875 19.01147461 C12.45168867 12.71351459 7.21451452 8.25276534 1.57421875 3.55078125 C0.79498047 2.78314453 0.79498047 2.78314453 0 2 C0 1.34 0 0.68 0 0 Z " fill="#E4AD81" transform="translate(108,202)"/>
<path d="M0 0 C1.55118743 3.96632735 0.37462964 6.80289395 -0.875 10.75 C-7.08633035 31.52582909 -4.42776433 54.16248459 5.44140625 73.359375 C7.30857877 76.52280514 9.26890422 78.58102945 12 81 C12.33 81.99 12.66 82.98 13 84 C14.65204456 84.70211894 16.31923769 85.36971413 18 86 C18.495 86.99 18.495 86.99 19 88 C12.61515711 86.72303142 8.92804931 82.93362994 5 78 C-2.81136771 65.60214117 -5.6512708 51.40309576 -7 37 C-7.07347656 36.22527344 -7.14695312 35.45054687 -7.22265625 34.65234375 C-7.7351505 23.08779965 -4.48960399 10.55170886 0 0 Z " fill="#E3B58A" transform="translate(105,115)"/>
<path d="M0 0 C0.33 0 0.66 0 1 0 C1.01981934 0.74161377 1.03963867 1.48322754 1.06005859 2.24731445 C1.15522928 5.60273834 1.26494094 8.95753286 1.375 12.3125 C1.4059375 13.47974609 1.436875 14.64699219 1.46875 15.84960938 C1.50742188 16.96787109 1.54609375 18.08613281 1.5859375 19.23828125 C1.6173584 20.26993408 1.6487793 21.30158691 1.68115234 22.36450195 C2.0319808 25.26434358 2.90337544 26.90337544 5 29 C5.08685603 30.56172745 5.10702219 32.12729344 5.09765625 33.69140625 C5.09443359 34.63564453 5.09121094 35.57988281 5.08789062 36.55273438 C5.07951172 37.54595703 5.07113281 38.53917969 5.0625 39.5625 C5.05798828 40.55958984 5.05347656 41.55667969 5.04882812 42.58398438 C5.03700007 45.05604849 5.02051849 47.52799518 5 50 C3.02 50 1.04 50 -1 50 C-0.67 33.5 -0.34 17 0 0 Z " fill="#F3B485" transform="translate(204,127)"/>
<path d="M0 0 C2.375 -0.1875 2.375 -0.1875 5 0 C7.32377141 3.48565712 7.16262515 4.46061693 6.75 8.5 C6.66234375 9.4590625 6.5746875 10.418125 6.484375 11.40625 C6 14 6 14 4 17 C3.01 16.67 2.02 16.34 1 16 C0.33333333 14 -0.33333333 12 -1 10 C-1.99 9.67 -2.98 9.34 -4 9 C-4 8.01 -4 7.02 -4 6 C-4.66 6 -5.32 6 -6 6 C-6 5.34 -6 4.68 -6 4 C-4.02 3.34 -2.04 2.68 0 2 C0 1.34 0 0.68 0 0 Z " fill="#E69C72" transform="translate(204,189)"/>
<path d="M0 0 C0.66 0 1.32 0 2 0 C7.84577374 19.09305134 -1.69110681 42.92972136 -7 61 C-8.05949624 57.75149644 -7.91062351 55.66009336 -7.07421875 52.3671875 C-6.85443359 51.47773438 -6.63464844 50.58828125 -6.40820312 49.671875 C-6.17037109 48.74890625 -5.93253906 47.8259375 -5.6875 46.875 C-2.38030707 33.99931039 -2.38030707 33.99931039 -0.375 20.875 C-0.189375 18.956875 -0.189375 18.956875 0 17 C0.66 17 1.32 17 2 17 C1.34 11.39 0.68 5.78 0 0 Z " fill="#E4AC80" transform="translate(136,95)"/>
<path d="M0 0 C0.98613281 0.00322266 1.97226563 0.00644531 2.98828125 0.00976562 C4.02082031 0.01814453 5.05335938 0.02652344 6.1171875 0.03515625 C7.67759766 0.04192383 7.67759766 0.04192383 9.26953125 0.04882812 C11.84380712 0.06063673 14.41796896 0.0771055 16.9921875 0.09765625 C16.9921875 0.42765625 16.9921875 0.75765625 16.9921875 1.09765625 C15.3421875 1.09765625 13.6921875 1.09765625 11.9921875 1.09765625 C11.9921875 2.08765625 11.9921875 3.07765625 11.9921875 4.09765625 C10.82300781 4.15824219 9.65382812 4.21882813 8.44921875 4.28125 C6.90103136 4.36569659 5.35285482 4.4503425 3.8046875 4.53515625 C3.03576172 4.57447266 2.26683594 4.61378906 1.47460938 4.65429688 C-2.44032325 4.87272659 -6.17901938 5.18457733 -10.0078125 6.09765625 C-10.0078125 5.10765625 -10.0078125 4.11765625 -10.0078125 3.09765625 C-9.0178125 3.09765625 -8.0278125 3.09765625 -7.0078125 3.09765625 C-7.0078125 2.43765625 -7.0078125 1.77765625 -7.0078125 1.09765625 C-4.50284246 -0.15482877 -2.79927976 -0.01608781 0 0 Z " fill="#F8B785" transform="translate(132.0078125,62.90234375)"/>
<path d="M0 0 C0 0.33 0 0.66 0 1 C-6.6 0.67 -13.2 0.34 -20 0 C-19.64013158 7.64720393 -18.71124466 13.75600408 -15.7421875 20.8203125 C-15.49726562 21.53960937 -15.25234375 22.25890625 -15 23 C-15.33 23.66 -15.66 24.32 -16 25 C-20.48990268 17.36716544 -22.76110665 8.66612228 -21.75 -0.25 C-21.5025 -1.1575 -21.255 -2.065 -21 -3 C-14.99021476 -6.00489262 -5.92624369 -1.96716649 0 0 Z " fill="#E8B68A" transform="translate(93,193)"/>
<path d="M0 0 C1.7421875 1.51953125 1.7421875 1.51953125 3 3 C2.410979 3.01458252 1.82195801 3.02916504 1.21508789 3.04418945 C-1.50303802 3.11953764 -4.22004942 3.21590384 -6.9375 3.3125 C-7.86369141 3.33505859 -8.78988281 3.35761719 -9.74414062 3.38085938 C-19.65789371 3.76349546 -27.50798798 7.11466132 -36.49609375 11.109375 C-37.32238281 11.40328125 -38.14867188 11.6971875 -39 12 C-39.66 11.67 -40.32 11.34 -41 11 C-29.07252587 2.66102095 -14.5425943 -1.17278986 0 0 Z " fill="#E4B287" transform="translate(145,60)"/>
<path d="M0 0 C0 0.33 0 0.66 0 1 C-1.093125 1.12375 -2.18625 1.2475 -3.3125 1.375 C-7.07381802 1.75464801 -7.07381802 1.75464801 -10 4 C-11.22730314 4.52520955 -12.45663734 5.04568748 -13.6875 5.5625 C-18.19963156 7.76455316 -20.96995953 10.95548835 -24.140625 14.78125 C-25.98680021 16.98424899 -27.94145165 18.99610338 -30 21 C-28.19418131 13.77672524 -24.19661927 8.13604241 -17.9375 4.125 C-16.63641925 3.39590381 -15.32499598 2.68467365 -14 2 C-12.7934375 1.3503125 -12.7934375 1.3503125 -11.5625 0.6875 C-7.72205442 -0.34286345 -3.95161187 -0.15496517 0 0 Z " fill="#E5AF84" transform="translate(136,94)"/>
<path d="M0 0 C2.64 0 5.28 0 8 0 C9.85131483 3.92857754 10.22004943 6.98775112 10.125 11.3125 C10.10695312 12.38113281 10.08890625 13.44976562 10.0703125 14.55078125 C10.03550781 15.76314453 10.03550781 15.76314453 10 17 C7 13.25 7 13.25 7 11 C6.34 10.34 5.68 9.68 5 9 C5 8.01 5 7.02 5 6 C4.34 6 3.68 6 3 6 C0 1.5 0 1.5 0 0 Z " fill="#E09870" transform="translate(128,95)"/>
<path d="M0 0 C0 3 0 3 -1.3125 5.4375 C-3.67804811 10.4314349 -4.77470184 15.62954425 -6 21 C-6.66 21 -7.32 21 -8 21 C-8.12375 22.299375 -8.2475 23.59875 -8.375 24.9375 C-8.5859375 27.15234375 -8.5859375 27.15234375 -9 29 C-9.66 29.33 -10.32 29.66 -11 30 C-11.96903589 19.3406052 -6.85388578 9.59170313 -1 1 C-0.67 0.67 -0.34 0.34 0 0 Z " fill="#E7B88C" transform="translate(83,91)"/>
<path d="M0 0 C1.76932004 5.30796013 -1.64614219 10.17172094 -4 15 C-9.76909499 25.0896181 -9.76909499 25.0896181 -14 29 C-14.66 28.67 -15.32 28.34 -16 28 C-14.73046875 26.53515625 -13.4609375 25.0703125 -12.19140625 23.60546875 C-10.79128769 21.89287029 -10.79128769 21.89287029 -10 19 C-9.34 19 -8.68 19 -8 19 C-7.72736328 18.1646875 -7.72736328 18.1646875 -7.44921875 17.3125 C-5.75137815 12.15803009 -3.93577765 7.06989385 -2 2 C-1.34 2 -0.68 2 0 2 C0 1.34 0 0.68 0 0 Z " fill="#E0A97F" transform="translate(208,204)"/>
<path d="M0 0 C2.6855594 2.6855594 3.06049974 5.37621328 4 9 C6.31 9.33 8.62 9.66 11 10 C11.33 9.01 11.66 8.02 12 7 C12.99 7 13.98 7 15 7 C15 6.34 15 5.68 15 5 C16.65 5 18.3 5 20 5 C17.28626326 8.19263146 13.88834844 10.48609385 10 12 C6.25 12.125 6.25 12.125 3 11 C0.42234625 7.34139468 -0.39206387 4.44339057 0 0 Z " fill="#E6B488" transform="translate(145,195)"/>
<path d="M0 0 C0.66 0 1.32 0 2 0 C6 6.75 6 6.75 6 9 C6.58652344 9.08636719 7.17304687 9.17273438 7.77734375 9.26171875 C10.61353253 10.203792 11.66600575 11.52567584 13.5625 13.8125 C14.14128906 14.49957031 14.72007813 15.18664062 15.31640625 15.89453125 C16.9203625 17.90040693 18.47324382 19.93493465 20 22 C11.35017918 18.29584144 4.25010957 10.20710813 0 2 C0 1.34 0 0.68 0 0 Z " fill="#E9BC91" transform="translate(78,218)"/>
<path d="M0 0 C0.33 0 0.66 0 1 0 C1.125 2.875 1.125 2.875 1 6 C0.34 6.66 -0.32 7.32 -1 8 C-6.67480065 7.71145081 -10.89935274 6.44406014 -16 4 C-14.375 2.875 -14.375 2.875 -12 2 C-9.125 2.8125 -9.125 2.8125 -6 4 C-4.00630969 4.36920191 -2.00720923 4.71325582 0 5 C0 3.35 0 1.7 0 0 Z " fill="#E4B58B" transform="translate(141,200)"/>
<path d="M0 0 C-7.25181115 3.26456103 -14.1140915 5.83107109 -22 7 C-19.29941861 3.53510312 -15.58499581 2.55355089 -11.5625 1.25 C-10.89412109 1.01667969 -10.22574219 0.78335938 -9.53710938 0.54296875 C-6.05663758 -0.60913985 -3.47787666 -1.45875134 0 0 Z " fill="#E1AB80" transform="translate(204,191)"/>
<path d="M0 0 C0.99 0.33 1.98 0.66 3 1 C1.74071375 3.48566953 0.46847516 5.96304185 -0.8125 8.4375 C-1.16892578 9.14455078 -1.52535156 9.85160156 -1.89257812 10.58007812 C-4.66015625 15.88671875 -4.66015625 15.88671875 -8 17 C-8 15.68 -8 14.36 -8 13 C-7.34 13 -6.68 13 -6 13 C-6 11.68 -6 10.36 -6 9 C-5.34 9 -4.68 9 -4 9 C-4 8.34 -4 7.68 -4 7 C-3.34 7 -2.68 7 -2 7 C-2 6.01 -2 5.02 -2 4 C-1.34 4 -0.68 4 0 4 C0 2.68 0 1.36 0 0 Z " fill="#E6BA8F" transform="translate(90,90)"/>
<path d="M0 0 C1.69996878 2.54995316 2.95114907 4.92960652 4.25 7.6875 C6.65668618 12.57989787 9.56809414 16.77793024 13 21 C12.67 21.66 12.34 22.32 12 23 C5.72324722 16.68706997 0 9.22408145 0 0 Z " fill="#E3B084" transform="translate(128,177)"/>
<path d="M0 0 C0.66 0.33 1.32 0.66 2 1 C1.34773438 1.56847656 0.69546875 2.13695313 0.0234375 2.72265625 C-5.06885149 7.22159593 -9.72733637 11.71538972 -14 17 C-14 11.63166196 -9.49330383 7.82510509 -6 4 C-4.04089156 2.38107148 -2.23406007 1.22873304 0 0 Z " fill="#E3B287" transform="translate(99,74)"/>
<path d="M0 0 C5.64913063 1.65707832 10.26300637 3.47762012 15 7 C12 8 12 8 9.3359375 6.85546875 C8.35882813 6.30503906 7.38171875 5.75460938 6.375 5.1875 C5.39273438 4.64480469 4.41046875 4.10210937 3.3984375 3.54296875 C1 2 1 2 0 0 Z " fill="#E1B288" transform="translate(93,194)"/>
<path d="M0 0 C0.99 0.33 1.98 0.66 3 1 C1.23055495 2.46001748 -0.54060571 3.91795593 -2.3125 5.375 C-3.29863281 6.18710938 -4.28476563 6.99921875 -5.30078125 7.8359375 C-8 10 -8 10 -11 12 C-10.3125 9.625 -10.3125 9.625 -9 7 C-7.35636866 6.27840576 -5.68949614 5.60648579 -4 5 C-3.67 4.01 -3.34 3.02 -3 2 C-2.01 1.34 -1.02 0.68 0 0 Z " fill="#E4B387" transform="translate(105,78)"/>
<path d="M0 0 C0.33 0 0.66 0 1 0 C1.17835515 4.54805635 0.99785435 7.8794254 -1 12 C-1.33 12 -1.66 12 -2 12 C-2.17835515 7.45194365 -1.99785435 4.1205746 0 0 Z " fill="#E5BA90" transform="translate(179,168)"/>
<path d="M0 0 C1.98 0 3.96 0 6 0 C3.14693203 2.32472205 0.45925163 3.7508258 -3 5 C-3.33 4.01 -3.66 3.02 -4 2 C-2.68 2 -1.36 2 0 2 C0 1.34 0 0.68 0 0 Z " fill="#E6B98E" transform="translate(111,73)"/>
<path d="M0 0 C1.13643966 3.40931897 0.86747764 4.00335456 -0.4375 7.1875 C-0.86869141 8.26064453 -0.86869141 8.26064453 -1.30859375 9.35546875 C-1.53675781 9.89816406 -1.76492187 10.44085938 -2 11 C-3.15941038 7.52176885 -2.70820884 5.54104422 -2 2 C-1.34 2 -0.68 2 0 2 C0 1.34 0 0.68 0 0 Z " fill="#E8AE80" transform="translate(208,204)"/>
</svg>
